<svg width="12" height="12" viewBox="0 0 12 12" fill="none" xmlns="http://www.w3.org/2000/svg">
<path d="M4.92859 5L4.92859 9C4.92859 9.27614 5.15245 9.5 5.42859 9.5C5.70473 9.5 5.92859 9.27614 5.92859 9L5.92859 5C5.92859 4.72386 5.70473 4.5 5.42859 4.5C5.15245 4.5 4.92859 4.72386 4.92859 5ZM7.42859 4.5C7.70473 4.5 7.92859 4.72386 7.92859 5V9C7.92859 9.27614 7.70473 9.5 7.42859 9.5C7.15245 9.5 6.92859 9.27614 6.92859 9V5C6.92859 4.72386 7.15245 4.5 7.42859 4.5ZM8.42859 2H11.4286C11.7047 2 11.9286 2.22386 11.9286 2.5C11.9286 2.77614 11.7047 3 11.4286 3H10.8761L10.1232 9.77608C9.98253 11.0422 8.91237 12 7.6385 12H5.21867C3.94479 12 2.87463 11.0422 2.73396 9.77608L1.98106 3H1.42859C1.15245 3 0.928589 2.77614 0.928589 2.5C0.928589 2.22386 1.15245 2 1.42859 2H4.42859C4.42859 0.89543 5.32402 0 6.42859 0C7.53316 0 8.42859 0.895431 8.42859 2ZM6.42859 1C5.8763 1 5.42859 1.44772 5.42859 2H7.42859C7.42859 1.44772 6.98087 1 6.42859 1ZM2.98721 3L3.72784 9.66565C3.81225 10.4253 4.45434 11 5.21867 11H7.6385C8.40282 11 9.04492 10.4253 9.12932 9.66565L9.86995 3H2.98721Z" fill="#5B5FC7"/>
</svg>
