<svg width="10" height="12" viewBox="0 0 10 12" fill="none" xmlns="http://www.w3.org/2000/svg">
<path d="M0.5 0C0.223858 0 0 0.223858 0 0.5C0 0.776142 0.223858 1 0.5 1H9.5C9.77614 1 10 0.776142 10 0.5C10 0.223858 9.77614 0 9.5 0H0.5ZM5.35355 2.14645C5.15829 1.95118 4.84171 1.95118 4.64645 2.14645L1.14645 5.64645C0.951184 5.84171 0.951184 6.15829 1.14645 6.35355C1.34171 6.54882 1.65829 6.54882 1.85355 6.35355L4.5 3.70711V11.5C4.5 11.7761 4.72386 12 5 12C5.27614 12 5.5 11.7761 5.5 11.5V3.70711L8.14645 6.35355C8.34171 6.54882 8.65829 6.54882 8.85355 6.35355C9.04882 6.15829 9.04882 5.84171 8.85355 5.64645L5.35355 2.14645Z" fill="#5B5FC7"/>
</svg>
