<svg width="9" height="16" viewBox="0 0 9 16" fill="none" xmlns="http://www.w3.org/2000/svg">
<path d="M8.49219 0.5C8.6276 0.5 8.74479 0.549479 8.84375 0.648437C8.94271 0.747396 8.99219 0.864583 8.99219 1C8.99219 1.13542 8.94271 1.2526 8.84375 1.35156L2.20313 8L8.84375 14.6484C8.94271 14.7474 8.99219 14.8646 8.99219 15C8.99219 15.1354 8.94271 15.2526 8.84375 15.3516C8.74479 15.4505 8.6276 15.5 8.49219 15.5C8.35677 15.5 8.23958 15.4505 8.14063 15.3516L1.14063 8.35156C1.04167 8.2526 0.992188 8.13542 0.992188 8C0.992188 7.86458 1.04167 7.7474 1.14063 7.64844L8.14062 0.648437C8.23958 0.549479 8.35677 0.5 8.49219 0.5Z" fill="#424242"/>
</svg>
