<svg width="11" height="13" viewBox="0 0 11 13" fill="none" xmlns="http://www.w3.org/2000/svg">
<path d="M0.779599 11.9187C0.447345 12.1406 0.00195312 11.9024 0.00195312 11.5029V2.01174C0.00195312 0.908565 0.895201 0.013715 1.99837 0.0117387L7.99837 0.00097981C9.10294 -0.00098925 9.99997 0.892835 10.002 1.9974V11.5029C10.002 11.9024 9.55656 12.1406 9.22431 11.9187L5.00195 9.09951L0.779599 11.9187ZM9.00195 2.00098L8.99502 1.88259C8.93636 1.38535 8.513 1.00007 8.00016 1.00098L2.00016 1.01174C1.44858 1.01273 1.00195 1.46015 1.00195 2.01174V10.5679L4.72431 8.08247C4.89239 7.97024 5.11151 7.97024 5.2796 8.08247L9.00195 10.5679V2.00098Z" fill="#252423"/>
</svg>
