<svg width="12" height="12" viewBox="0 0 12 12" fill="none" xmlns="http://www.w3.org/2000/svg">
<path d="M1.5 0C0.671573 0 0 0.671573 0 1.5V2.69253C0 3.21234 0.26912 3.6951 0.711267 3.96843L4.57713 6.35823C3.63807 6.86508 3 7.85803 3 9C3 10.6569 4.34315 12 6 12C7.65685 12 9 10.6569 9 9C9 7.85803 8.36193 6.86508 7.42287 6.35823L11.2887 3.96843C11.7309 3.6951 12 3.21234 12 2.69253V1.5C12 0.671573 11.3284 0 10.5 0H1.5ZM1 1.5C1 1.22386 1.22386 1 1.5 1H3V4.20763L1.23709 3.11783C1.08971 3.02672 1 2.8658 1 2.69253V1.5ZM4 4.82581V1H8V4.82581L6.26291 5.89965C6.10179 5.99925 5.89821 5.99925 5.73709 5.89965L4 4.82581ZM9 4.20763V1H10.5C10.7761 1 11 1.22386 11 1.5V2.69253C11 2.8658 10.9103 3.02672 10.7629 3.11783L9 4.20763ZM4 9C4 7.89543 4.89543 7 6 7C7.10457 7 8 7.89543 8 9C8 10.1046 7.10457 11 6 11C4.89543 11 4 10.1046 4 9Z" fill="#212121"/>
</svg>
