<svg width="11" height="11" viewBox="0 0 11 11" fill="none" xmlns="http://www.w3.org/2000/svg">
<path d="M7.05224 1.43562C6.3425 0.725881 5.14947 0.899942 4.67209 1.78288L3.14488 4.60757L0.814922 5.53601C0.658682 5.59827 0.544211 5.73491 0.510286 5.89964C0.476361 6.06437 0.527528 6.23512 0.646455 6.35405L2.29296 8.00056L0.14655 10.147L0 11.0005L0.853657 10.8541L3.00007 8.70766L4.64645 10.354C4.7653 10.4729 4.9359 10.5241 5.10054 10.4903C5.26518 10.4565 5.40183 10.3422 5.46425 10.1862L6.39704 7.8542L9.21798 6.32845C10.1008 5.85099 10.2747 4.65808 9.56503 3.94841L7.05224 1.43562ZM5.55175 2.25848C5.71088 1.96417 6.10856 1.90615 6.34514 2.14273L8.85793 4.65552C9.09448 4.89208 9.0365 5.28971 8.74224 5.44886L5.76214 7.0607C5.65929 7.11633 5.5792 7.20624 5.53577 7.3148L4.81738 9.11076L1.89051 6.18388L3.68354 5.4694C3.79239 5.42602 3.88256 5.34579 3.93829 5.24272L5.55175 2.25848Z" fill="#212121"/>
</svg>
